<svg xmlns="http://www.w3.org/2000/svg" version="1.1" xmlns:xlink="http://www.w3.org/1999/xlink" xmlns:svgjs="http://svgjs.dev/svgjs" viewBox="0 0 1920 1080"><rect width="1920" height="1080" fill="#bdd2ff"></rect><g transform="matrix(0.8131727983645296,0.8131727983645295,-0.8131727983645295,0.8131727983645296,611.1326011799888,-647.8340875820234)"><path d="M0,-1080C11.628804666182702,-997.7467603013183,81.7768744951013,-749.0257076518965,69.77282799709621,-586.4805618079101C57.76878149909113,-423.9354159639238,-58.75053160954188,-241.7818041958584,-72.0242789880305,-104.72912493608166C-85.29802636651912,32.32355432369508,-18.474020887852873,97.8790171361592,-9.869656273835503,235.83551375075024C-1.265291659818132,373.7920103653413,-15.430766945348935,566.2578505874837,-20.39809130392628,723.0098547514646C-25.365415662503622,879.7618589154454,-30.12390992773043,1020.3618289209685,-39.673602425299556,1176.3475387346348C-49.22329492286868,1332.333248548301,-84.30851336022431,1494.9820367559014,-77.69624628934105,1658.9241136334622C-71.08397921845778,1822.866190511023,-12.949374381556842,2076.4873522722437,0,2160L 1920 2160 L 1920 -1080 Z" fill="url(&quot;#SvgjsLinearGradient1208&quot;)"></path><path d="M192,-1080C204.26869366493088,-1018.7411560285426,261.40931209921155,-838.9903991747998,265.6121619895852,-712.4469361712556C269.8150118799589,-585.9034731677115,230.1978053124787,-476.41608309933,217.21709934224214,-320.73922197873526C204.23639337200558,-165.0623608581405,178.96625289789563,92.09557414896233,187.72792616816594,221.614230552313C196.48959943843624,351.13288695566365,254.4584854745378,329.58017394269893,269.787138963864,456.3727164413687C285.1157924531901,583.1652589400385,296.39015469965324,818.7273983968911,279.6998471041229,982.3694855443317C263.0095395085926,1146.0115726917725,174.42095866746334,1298.8377615658812,169.6452933906819,1438.2252393260126C164.86962811390046,1577.612717086144,247.32007100854798,1698.3985586594558,251.04585544343433,1818.6943521051203C254.77163987832068,1938.9901455507847,201.84097590723906,2103.1157253508536,192,2160L 1920 2160 L 1920 -1080 Z" fill="url(&quot;#SvgjsLinearGradient1209&quot;)"></path><path d="M384,-1080C395.85382920574165,-967.3049132354854,451.4766271599317,-624.7761509495411,455.12297523444977,-403.8294794129122C458.76932330896784,-182.88280787628318,423.5201408604432,39.07210492347721,405.87808844710844,245.68002921977404C388.2360360337737,452.28795351607084,358.8055722325222,634.4802417766551,349.2706607544413,835.8180663648687C339.73574927636037,1037.1558909530825,342.88039637103,1233.0099878098674,348.66861957862307,1453.706976749056C354.45684278621616,1674.4039656882444,378.11143659643716,2042.2844961248427,384,2160L 1920 2160 L 1920 -1080 Z" fill="url(&quot;#SvgjsLinearGradient1210&quot;)"></path><path d="M576,-1080C569.3000077228202,-986.0877753779781,541.2561027024481,-718.8589425601866,535.800046336921,-516.5266522678685C530.343989971394,-314.19436197555035,540.9092272085371,-86.40491293041916,543.2636618068378,133.99374175390858C545.6180964051385,354.39239643823635,556.0398290072261,574.7891641595177,549.9266539267254,805.8652758380979C543.8134788462247,1036.941387516678,502.23905364495454,1294.7612911317397,506.58461132383366,1520.45041182539C510.9301690027128,1746.1395325190401,564.4307685539723,2053.4084019708985,576,2160L 1920 2160 L 1920 -1080 Z" fill="url(&quot;#SvgjsLinearGradient1211&quot;)"></path><path d="M768,-1080C755.0737350131353,-983.5060365976709,695.034398431402,-667.2422870224664,690.4424100788117,-501.03621958602565C685.8504217262214,-334.83015214958493,741.2002327689454,-267.83089657495276,740.4480698844585,-82.76359538135593C739.6959069999716,102.30370581224089,690.3112472705739,424.5085406939605,685.9294327718901,609.3675875755554C681.5476182732064,794.2266344571502,691.5478687552263,848.3297324460283,714.1571828923562,1026.3906859082133C736.7664970294861,1204.4516393703984,812.6115147433958,1488.798422666701,821.5853175946697,1677.7333083486656C830.5591204459437,1866.66819403063,776.9308862657783,2079.622218058111,768,2160L 1920 2160 L 1920 -1080 Z" fill="url(&quot;#SvgjsLinearGradient1212&quot;)"></path><path d="M960,-1080C963.9772906790097,-983.2754168559646,979.5171739177393,-709.3754344527142,983.8637440740578,-499.65250113578765C988.2103142303762,-289.9295678188611,982.5577869519391,-43.44464803813153,986.0794209379108,178.33759990155954C989.6010549238824,400.1198478412506,1000.0373406262861,600.1199957876748,1004.9935479898877,831.0409865023589C1009.9497553534893,1061.9619772170429,1023.3155897845019,1342.3703752733902,1015.8166651195206,1563.8635441896638C1008.3177404545394,1785.3567131059374,969.3027775199201,2060.643924031611,960,2160L 1920 2160 L 1920 -1080 Z" fill="url(&quot;#SvgjsLinearGradient1213&quot;)"></path><path d="M1152,-1080C1154.2727757538435,-995.8905590185327,1169.5363199923615,-745.3513824714483,1165.6366545230612,-575.3433541111966C1161.736989053761,-405.3353257509449,1128.0423740714537,-250.8123866121753,1128.6020071841983,-59.951829838489424C1129.161640296943,130.90872693519643,1175.2850251095865,374.5465229626292,1168.9944531995297,569.8199865309186C1162.703881289473,765.0934500992081,1102.2285892793673,940.6715491006063,1090.8585757238584,1111.6889515712476C1079.4885621683495,1282.706354041889,1090.5841344871192,1421.2058932833077,1100.774371866476,1595.9244013547664C1110.964609245833,1770.642909426225,1143.4623953110793,2065.9874002257943,1152,2160L 1920 2160 L 1920 -1080 Z" fill="url(&quot;#SvgjsLinearGradient1214&quot;)"></path><path d="M1344,-1080C1329.6106899294582,-992.0645031205764,1267.8726511754126,-738.9852993750814,1257.6641395767485,-552.3870187234584C1247.4556279780845,-365.7887380718354,1283.1089318829897,-149.8466847849573,1282.7489304080157,39.589683909738085C1282.3889289330416,229.02605260443346,1252.3180107858675,423.5896081483653,1255.5041307269044,584.231193444714C1258.6902506679412,744.8727787410627,1283.0876821736483,839.9777018910615,1301.8656500542374,1003.43919568783C1320.6436179348266,1166.9006894845984,1361.1495463528122,1372.240022173296,1368.1719380104394,1565.0001562253244C1375.1943296680665,1757.7602902773529,1348.0286563350733,2060.8333593708876,1344,2160L 1920 2160 L 1920 -1080 Z" fill="url(&quot;#SvgjsLinearGradient1215&quot;)"></path><path d="M1536,-1080C1528.6681195059261,-945.2494984325161,1494.8198497138458,-543.968140169926,1492.008717035557,-271.4969905950967C1489.1975843572684,0.9741589797325787,1520.807770731928,288.1710162927363,1519.1332039302679,554.8268974489757C1517.4586371286077,821.4827786052151,1479.150183547308,1060.909445917169,1481.9613162255966,1328.4382963423398C1484.7724489038853,1595.9671467675105,1526.9935527042662,2021.4063827237233,1536,2160L 1920 2160 L 1920 -1080 Z" fill="url(&quot;#SvgjsLinearGradient1216&quot;)"></path><path d="M1728,-1080C1714.0706016461745,-991.8827983989753,1629.6098082271255,-702.1177281269152,1644.4236098770473,-551.2967903938518C1659.237411526969,-400.4758526607884,1805.6215552068504,-328.70888938583187,1816.882809899531,-175.07437360161993C1828.1440645922114,-21.439857817407955,1729.3400783239222,205.53737896836142,1711.9911380331305,370.51030431141993C1694.6421977423388,535.4832296544785,1697.9931411690436,667.0692615376516,1712.78916815478,814.7631784567312C1727.5851951405166,962.4570953758108,1811.298816431657,1107.6961829561478,1800.7672999475487,1256.6738058258977C1790.2357834634404,1405.6514286956476,1661.727952574721,1558.0745499795466,1649.6000692501295,1708.6289156752305C1637.472185925538,1859.1832813709143,1714.9333448750217,2084.771485945872,1728,2160L 1920 2160 L 1920 -1080 Z" fill="url(&quot;#SvgjsLinearGradient1217&quot;)"></path></g><defs><linearGradient x1="0.1" y1="0" x2="0" y2="1" id="SvgjsLinearGradient1208"><stop stop-color="#bdd2ff" offset="0"></stop><stop stop-color="#bdddff" offset="0"></stop></linearGradient><linearGradient x1="0.1" y1="0" x2="0" y2="1" id="SvgjsLinearGradient1209"><stop stop-color="#c6d8ff" offset="0"></stop><stop stop-color="#c6e1ff" offset="0.1"></stop></linearGradient><linearGradient x1="0.1" y1="0" x2="0" y2="1" id="SvgjsLinearGradient1210"><stop stop-color="#cfdfff" offset="0"></stop><stop stop-color="#cfe7ff" offset="0.2"></stop></linearGradient><linearGradient x1="0.1" y1="0" x2="0" y2="1" id="SvgjsLinearGradient1211"><stop stop-color="#d9e5ff" offset="0"></stop><stop stop-color="#d9ebff" offset="0.3"></stop></linearGradient><linearGradient x1="0.1" y1="0" x2="0" y2="1" id="SvgjsLinearGradient1212"><stop stop-color="#e2ebff" offset="0"></stop><stop stop-color="#e2f0ff" offset="0.4"></stop></linearGradient><linearGradient x1="0.1" y1="0" x2="0" y2="1" id="SvgjsLinearGradient1213"><stop stop-color="#ebf1ff" offset="0"></stop><stop stop-color="#ebf4ff" offset="0.5"></stop></linearGradient><linearGradient x1="0.1" y1="0" x2="0" y2="1" id="SvgjsLinearGradient1214"><stop stop-color="#f4f8ff" offset="0"></stop><stop stop-color="#f4faff" offset="0.6"></stop></linearGradient><linearGradient x1="0.1" y1="0" x2="0" y2="1" id="SvgjsLinearGradient1215"><stop stop-color="#fefeff" offset="0"></stop><stop stop-color="#fefeff" offset="0.7"></stop></linearGradient><linearGradient x1="0.1" y1="0" x2="0" y2="1" id="SvgjsLinearGradient1216"><stop stop-color="#ffffff" offset="0"></stop><stop stop-color="#ffffff" offset="0.8"></stop></linearGradient><linearGradient x1="0.1" y1="0" x2="0" y2="1" id="SvgjsLinearGradient1217"><stop stop-color="#ffffff" offset="0"></stop><stop stop-color="#ffffff" offset="0.9"></stop></linearGradient></defs></svg>