<svg xmlns="http://www.w3.org/2000/svg" version="1.1" xmlns:xlink="http://www.w3.org/1999/xlink" xmlns:svgjs="http://svgjs.dev/svgjs" viewBox="0 0 1920 1080"><rect width="1920" height="1080" fill="#e6e6e6"></rect><g transform="matrix(1.15,0,0,1.15,-142.1854868888854,-81)"><path d="M0,-1080C-3.8987072173469435,-981.2164441175822,-28.951556709652227,-675.390139345685,-23.39224330408166,-487.2986647054935C-17.832929898511093,-299.2071900653019,33.23065409735438,-143.4379675005653,33.35588043342341,48.54884784114944C33.481106769492435,240.53566318286417,-21.449680312471163,505.0341909003256,-22.640885287667516,664.6222273447947C-23.83209026286387,824.2102637892639,16.48126110604474,865.2197292089564,26.208650582245298,1006.0770665079644C35.936040058445855,1146.9344038069726,40.09155999991004,1317.4457622235038,35.723451569535825,1509.766251138843C31.355343139161608,1702.0867400541822,5.953908594922638,2051.6277085231404,0,2160L 1920 2160 L 1920 -1080 Z" fill="url(&quot;#SvgjsLinearGradient1090&quot;)"></path><path d="M320,-1080C334.15106826584906,-1000.7705005455784,410.3048536898672,-783.7890702780129,404.90640959509443,-604.6230032734708C399.5079655003217,-425.45693626892864,303.76870784428013,-207.05605953695107,287.6093354313635,-5.003597972747514C271.44996301844685,197.04886359145604,322.503133209484,420.7748841232743,307.9501751175946,607.6917661117506C293.3972170257052,794.6086481002268,188.784762422602,928.5110497620119,200.29158688002707,1116.4976939581097C211.79841133745214,1304.4843381542075,357.0397196754828,1561.6945802813557,376.99112186214495,1735.6116312883373C396.9425240488071,1909.528682295319,329.4985203103575,2089.268605214723,320,2160L 1920 2160 L 1920 -1080 Z" fill="url(&quot;#SvgjsLinearGradient1091&quot;)"></path><path d="M640,-1080C650.0166016675824,-1026.9736510929388,710.2827010133296,-917.0672207492228,700.0996100054945,-761.8419065576325C689.9165189976593,-606.6165923660421,603.0511958554731,-279.229711004127,578.901453952989,-148.64811485045777C554.7517120505048,-18.066518696788535,534.7043031602965,-85.84936093666454,555.2011585905898,21.647670364382975C575.6980140208831,129.1447016654305,697.7503889613863,352.49057998458954,701.8825865347487,496.33407295582725C706.0147841081111,640.177565927065,608.7235642358354,725.614034830756,579.9943440307641,884.708628191809C551.2651238256927,1043.803221552862,535.7226875861363,1316.9765870959939,529.5072653043205,1450.9016331221446C523.2918430225047,1584.8266791482954,524.2863545572565,1570.0758432024043,542.7018103398697,1688.2589043487135C561.1172661224829,1806.4419654950227,623.7836350566449,2081.376484058119,640,2160L 1920 2160 L 1920 -1080 Z" fill="url(&quot;#SvgjsLinearGradient1092&quot;)"></path><path d="M960,-1080C953.5386424524119,-979.5750905499509,902.8272677266724,-659.1594455520136,921.231854714471,-477.45054329970526C939.6364417022695,-295.7416410473969,1067.244652369997,-156.6530294668386,1070.427521926791,10.253413513849921C1073.610391483585,177.15985649453845,950.524915254078,334.3038634294454,940.329072055235,523.9881145844258C930.133228856392,713.6723657394062,1006.8452004204693,950.2319528502373,1009.2524627337327,1148.3589204437326C1011.6597250469962,1346.4858880372278,962.9813897237713,1544.1430735526858,954.7726459348158,1712.749920145397C946.5639021458604,1881.3567667381083,959.1287743224693,2085.4583200242328,960,2160L 1920 2160 L 1920 -1080 Z" fill="url(&quot;#SvgjsLinearGradient1093&quot;)"></path><path d="M1280,-1080C1269.2773338064421,-1001.5058118734246,1232.8506739574348,-748.5774767315901,1215.6640028386528,-609.0348712405479C1198.4773317198708,-469.4922657495057,1170.6629866293877,-405.6390061523766,1176.8799732873076,-242.74436705374706C1183.0969599452276,-79.84972795511752,1222.1131136781746,215.364822138005,1252.9659227861728,368.33296335122924C1283.818731894171,521.3011045644535,1373.5161177883717,529.8423668703339,1361.9968279352959,675.0644802255983C1350.47753808222,820.2865935808628,1186.1293517942117,1068.7795757089698,1183.8501836677178,1239.665643482816C1181.571015541224,1410.5517112566622,1332.2968497876186,1546.9918274491442,1348.3218191763324,1700.380886868675C1364.3467885650462,1853.7699462882056,1291.386969862722,2083.3968144781124,1280,2160L 1920 2160 L 1920 -1080 Z" fill="url(&quot;#SvgjsLinearGradient1094&quot;)"></path><path d="M1600,-1080C1591.9172321212104,-1014.2034319222474,1558.6772710673074,-846.3000160481765,1551.5033927272623,-685.2205915334844C1544.3295143872172,-524.1411670187922,1530.5480492524464,-299.2151930990845,1556.9567299597288,-113.52345291184707C1583.3654106670112,72.16828727539036,1720.9144415171236,268.7181588815091,1709.9554769709573,428.9298495899402C1698.996512424791,589.1415402983713,1508.8510379390218,693.878406655534,1491.2029426827316,847.7466913387395C1473.5548474264415,1001.614976021945,1586.9033412820565,1206.2252375874186,1604.0669054332166,1352.1395576891732C1621.2304695843766,1498.0538777909278,1594.8621451618944,1588.589204897463,1594.1843275896917,1723.2326119492675C1593.506510017489,1857.8760190010719,1599.0307212649486,2087.2054353248777,1600,2160L 1920 2160 L 1920 -1080 Z" fill="url(&quot;#SvgjsLinearGradient1095&quot;)"></path></g><defs><linearGradient x1="0.1" y1="0" x2="0" y2="1" id="SvgjsLinearGradient1090"><stop stop-color="#e6e6e6" offset="0"></stop><stop stop-color="#e6e6e6" offset="0"></stop></linearGradient><linearGradient x1="0.1" y1="0" x2="0" y2="1" id="SvgjsLinearGradient1091"><stop stop-color="#eaeaea" offset="0"></stop><stop stop-color="#eaeaea" offset="0.16666666666666666"></stop></linearGradient><linearGradient x1="0.1" y1="0" x2="0" y2="1" id="SvgjsLinearGradient1092"><stop stop-color="#eeeeee" offset="0"></stop><stop stop-color="#eeeeee" offset="0.3333333333333333"></stop></linearGradient><linearGradient x1="0.1" y1="0" x2="0" y2="1" id="SvgjsLinearGradient1093"><stop stop-color="#f2f2f2" offset="0"></stop><stop stop-color="#f2f2f2" offset="0.5"></stop></linearGradient><linearGradient x1="0.1" y1="0" x2="0" y2="1" id="SvgjsLinearGradient1094"><stop stop-color="#f7f7f7" offset="0"></stop><stop stop-color="#f7f7f7" offset="0.6666666666666666"></stop></linearGradient><linearGradient x1="0.1" y1="0" x2="0" y2="1" id="SvgjsLinearGradient1095"><stop stop-color="#fbfbfb" offset="0"></stop><stop stop-color="#fbfbfb" offset="0.8333333333333334"></stop></linearGradient></defs></svg>