<svg xmlns="http://www.w3.org/2000/svg" version="1.1" xmlns:xlink="http://www.w3.org/1999/xlink" xmlns:svgjs="http://svgjs.dev/svgjs" viewBox="0 0 1920 1080"><rect width="1920" height="1080" fill="#cfcfcf"></rect><g transform="matrix(1.15,0,0,1.15,-140.6548444747923,-81)"><path d="M0,-1080C-7.193695934701822,-1007.1651042412033,-53.25950604441994,-817.324436801728,-43.16217560821093,-642.9906254472197C-33.06484517200192,-468.65681409271144,40.55922090042439,-237.57979391970954,60.583982617254094,-33.997131872950206C80.6087443340838,169.58553017380913,76.4795033505218,392.88096523101194,76.98639469276725,578.5053468333363C77.4932860350127,764.1297284356606,66.18919221740565,890.1056288428341,63.62533067072678,1079.749157740996C61.06146912404791,1269.392686639158,72.20744719114849,1536.3247131791404,61.60322541269403,1716.3665202223078C50.999003634239564,1896.4083272654752,10.267204235449006,2086.061086703718,0,2160L 1920 2160 L 1920 -1080 Z" fill="url(&quot;#SvgjsLinearGradient1102&quot;)"></path><path d="M320,-1080C326.56274986997175,-967.0835853568814,365.31794921420305,-627.5881183187181,359.3764992198305,-402.50151214128823C353.435049225458,-177.41490596385833,282.7213499154119,63.835885978354014,284.3513000337648,270.51963706457946C285.9812501521177,477.2033881508049,363.03491831818354,625.2447230195072,369.156199929948,837.6009943760644C375.27748154171246,1049.9572657326214,329.27168969267626,1324.2574309332663,321.0789897043516,1544.6572652039222C312.88628971602697,1765.057099474578,320.1798316173919,2057.442877533987,320,2160L 1920 2160 L 1920 -1080 Z" fill="url(&quot;#SvgjsLinearGradient1103&quot;)"></path><path d="M640,-1080C627.2159179363957,-997.4425902100757,574.2760492217973,-745.5722483095601,563.2955076183747,-584.6555412604537C552.3149660149521,-423.73883421134724,574.24407746818,-255.96165205337226,574.1167503794644,-114.49975770536122C573.9894232907488,26.962136642649824,570.754619669305,99.99029977382781,562.5315450860812,264.1158248276125C554.3084705028574,428.24134988139724,500.86158025083233,705.7223851278726,524.7783028801215,870.2533926173471C548.6950255094106,1034.7844001068217,666.4643900582305,1128.1610907837396,706.031880861816,1251.3018697644598C745.5993716654016,1374.44264874518,773.1885611786042,1457.6483781290779,762.1832477016349,1609.098066501668C751.1779342246655,1760.547754874258,660.3638746169391,2068.1830110836113,640,2160L 1920 2160 L 1920 -1080 Z" fill="url(&quot;#SvgjsLinearGradient1104&quot;)"></path><path d="M960,-1080C978.3560313409321,-1004.3499296505406,1070.220198361695,-783.8423062088781,1070.1361880455925,-626.0995779032437C1070.0521777294898,-468.3568495976093,977.2130361018909,-281.4665927123482,959.4959381033843,-133.5436301661935C941.7788401048778,14.379332379961198,981.5828937058732,119.53208895966839,963.833600054553,261.4381973736845C946.0843064032329,403.3443057877006,845.8114018994212,559.7929788806707,853.0001761954632,717.893020317903C860.1889504915051,875.9930617551354,985.0677394418989,1041.6911913903557,1006.9662458308046,1210.0384459970787C1028.8647522197102,1378.3857006038018,992.2189221673648,1569.6496222910876,984.3912145288973,1727.976547958241C976.5635068904298,1886.3034736253946,964.0652024214829,2087.9960913263735,960,2160L 1920 2160 L 1920 -1080 Z" fill="url(&quot;#SvgjsLinearGradient1105&quot;)"></path><path d="M1280,-1080C1275.8047135286515,-1030.2355012918786,1270.0895811163275,-925.2162584845062,1254.8282811719084,-781.4130077512713C1239.5669812274894,-637.6097570180364,1198.006253148128,-365.34191033051434,1188.4322003334858,-217.1804956005903C1178.8581475188435,-69.01908087066622,1187.016172390242,-21.48439094466849,1197.383964284055,107.55548062827319C1207.7517561778682,236.59535220121487,1230.962862350055,396.3743577642458,1250.638951696365,557.0587338370597C1270.315041042675,717.7431099098735,1324.5754374348664,922.8293772285554,1315.4405003619142,1071.6617370651566C1306.305563288962,1220.4940969017578,1182.5223380846276,1323.437098709003,1195.8293292586513,1450.0528928566666C1209.1363204326751,1576.6686870043302,1381.2540022824983,1713.0319840939153,1395.2824474060565,1831.3565019511375C1409.3108925296146,1949.6810198083597,1299.2137412343427,2105.226083658523,1280,2160L 1920 2160 L 1920 -1080 Z" fill="url(&quot;#SvgjsLinearGradient1106&quot;)"></path><path d="M1600,-1080C1589.8329460908094,-995.4533105641599,1520.5875866586343,-751.0075412401774,1538.9976765448564,-572.7198633849594C1557.4077664310785,-394.43218552974133,1710.986500742964,-193.69556224549157,1710.4605393173326,-10.273932868691759C1709.9345778917013,173.14769650810806,1557.7835421088305,346.22316344727074,1535.8419079910689,527.8099128758395C1513.9002738733072,709.3966623044082,1566.9093423380436,900.7557019468413,1578.8107346107633,1079.2465637027206C1590.712126883483,1257.7374254585998,1603.7187173958478,1418.6295106949015,1607.2502616273873,1598.7550834111148C1610.7818058589269,1778.8806561273282,1601.2083769378978,2066.459180568519,1600,2160L 1920 2160 L 1920 -1080 Z" fill="url(&quot;#SvgjsLinearGradient1107&quot;)"></path></g><defs><linearGradient x1="0.1" y1="0" x2="0" y2="1" id="SvgjsLinearGradient1102"><stop stop-color="#cfcfcf" offset="0"></stop><stop stop-color="#cfcfcf" offset="0"></stop></linearGradient><linearGradient x1="0.1" y1="0" x2="0" y2="1" id="SvgjsLinearGradient1103"><stop stop-color="#d7d7d7" offset="0"></stop><stop stop-color="#d7d7d7" offset="0.16666666666666666"></stop></linearGradient><linearGradient x1="0.1" y1="0" x2="0" y2="1" id="SvgjsLinearGradient1104"><stop stop-color="#dfdfdf" offset="0"></stop><stop stop-color="#dfdfdf" offset="0.3333333333333333"></stop></linearGradient><linearGradient x1="0.1" y1="0" x2="0" y2="1" id="SvgjsLinearGradient1105"><stop stop-color="#e7e7e7" offset="0"></stop><stop stop-color="#e7e7e7" offset="0.5"></stop></linearGradient><linearGradient x1="0.1" y1="0" x2="0" y2="1" id="SvgjsLinearGradient1106"><stop stop-color="#efefef" offset="0"></stop><stop stop-color="#efefef" offset="0.6666666666666666"></stop></linearGradient><linearGradient x1="0.1" y1="0" x2="0" y2="1" id="SvgjsLinearGradient1107"><stop stop-color="#f7f7f7" offset="0"></stop><stop stop-color="#f7f7f7" offset="0.8333333333333334"></stop></linearGradient></defs></svg>