<svg xmlns="http://www.w3.org/2000/svg" version="1.1" xmlns:xlink="http://www.w3.org/1999/xlink" xmlns:svgjs="http://svgjs.dev/svgjs" viewBox="0 0 1920 1080"><rect width="1920" height="1080" fill="#002aff"></rect><g transform="matrix(1.15,0,0,1.15,-143.72352361679077,-81)"><path d="M0,-1080C1.9320207070129054,-974.3429978980147,6.956436062078694,-677.4645843331971,11.592124242077432,-446.0579873880882C16.22781242207617,-214.65139044297933,10.469397552736677,84.3046091267586,27.814129079992426,308.43958167065307C45.15886060724817,532.5745542145476,119.18091205952521,677.262719069816,115.66051340561194,898.7518478752786C112.14011475169866,1120.2409766807411,25.96848939078143,1427.1663291493085,6.691737156512772,1637.3743545034288C-12.585015077755884,1847.582379857549,1.115289526085462,2072.8957257505713,0,2160L 1920 2160 L 1920 -1080 Z" fill="url(&quot;#SvgjsLinearGradient1036&quot;)"></path><path d="M320,-1080C317.37860277014073,-988.2759119259699,319.0959581352997,-707.9669840369161,304.27161662084427,-529.6554715558193C289.4472751063888,-351.34395907472253,210.1473427680688,-185.32108751415564,231.05395091326722,-10.130925113419664C251.96055905846563,165.0592372873163,408.13477677416586,335.45005399196657,429.7112654920347,521.4855028485965C451.2877542099036,707.5209517052265,360.35904862293444,938.3479353043288,360.51288322048043,1106.0817680263604C360.6667178180264,1273.815600748392,437.38642028072417,1352.2354605185126,430.63427307731075,1527.8884991807859C423.88212587389734,1703.5415378430591,338.4390455128851,2054.6480831967974,320,2160L 1920 2160 L 1920 -1080 Z" fill="url(&quot;#SvgjsLinearGradient1037&quot;)"></path><path d="M640,-1080C651.4498664729284,-996.6410764466257,715.2850792458498,-745.947405477367,708.6991988375706,-579.8464586797537C702.1133184292914,-413.74551188214036,614.8623543008472,-217.42481055894436,600.4847175503252,-83.39431921431975C586.1070807998032,50.63617213030486,610.1317289551142,101.18225353615998,622.4333783344384,224.33648938799405C634.7350277137626,347.4907252398281,685.7450401077408,503.69877766549916,674.2946138262704,655.5310958966847C662.8441875448,807.3634141278703,549.5800401344437,982.909663890723,553.7308206456162,1135.3303987751076C557.8816011567886,1287.751133659492,684.821100334241,1399.2772383321767,699.199296893305,1570.0555052029922C713.577493452369,1740.8337720738077,649.8665494822175,2061.675917533832,640,2160L 1920 2160 L 1920 -1080 Z" fill="url(&quot;#SvgjsLinearGradient1038&quot;)"></path><path d="M960,-1080C964.025622807093,-925.0837889867455,976.1143189519847,-401.17125856832183,984.1537368425581,-150.5027339204728C992.1931547331316,100.16579072737622,995.3117397807654,186.69227256171826,1008.2365073434406,424.0111478870939C1021.1612749061159,661.3300232124695,1069.741760109183,984.07904267963,1061.7023422186094,1273.410518031781C1053.6629243280358,1562.7419933839321,976.9503903697682,2012.2350863386303,960,2160L 1920 2160 L 1920 -1080 Z" fill="url(&quot;#SvgjsLinearGradient1039&quot;)"></path><path d="M1280,-1080C1272.6610456512003,-972.0790852129461,1232.0354868228708,-611.6930376283696,1235.9662739072014,-432.4745112776763C1239.897060991532,-253.25598492698307,1279.79035405307,-176.69284946523126,1303.5847225059833,-4.688841895840596C1327.3790909588968,167.31516567355007,1395.2138575050371,433.80343205190036,1378.7324846246815,599.5495341386678C1362.251111744326,765.2956362254353,1231.4620783360951,825.2199804612411,1204.6964852238493,989.7877706247643C1177.9308921116035,1154.3555607882874,1205.5883401551812,1391.9209035572678,1218.1389259512064,1586.956275119807C1230.6895117472316,1781.9916466823463,1269.6898209918677,2064.492712519968,1280,2160L 1920 2160 L 1920 -1080 Z" fill="url(&quot;#SvgjsLinearGradient1040&quot;)"></path><path d="M1600,-1080C1610.8852371528874,-979.8642952302682,1685.3600191769303,-677.3669199593426,1665.3114229173248,-479.185771381609C1645.2628266577192,-281.00462280387546,1498.893503133798,-119.16201047136926,1479.7084224423666,109.0868914664012C1460.523341750935,337.3357934041717,1548.6356047819593,647.8995085180871,1550.2009387687363,890.3076402450138C1551.7662727555132,1132.7157719719405,1480.8005828244848,1351.9202885354634,1489.1004263630286,1563.535681827961C1497.4002699015725,1775.1510751204587,1581.5167377271714,2060.58928030466,1600,2160L 1920 2160 L 1920 -1080 Z" fill="url(&quot;#SvgjsLinearGradient1041&quot;)"></path></g><defs><linearGradient x1="0.1" y1="0" x2="0" y2="1" id="SvgjsLinearGradient1036"><stop stop-color="#002aff" offset="0"></stop><stop stop-color="#0054ff" offset="0"></stop></linearGradient><linearGradient x1="0.1" y1="0" x2="0" y2="1" id="SvgjsLinearGradient1037"><stop stop-color="#4362ff" offset="0"></stop><stop stop-color="#4381ff" offset="0.16666666666666666"></stop></linearGradient><linearGradient x1="0.1" y1="0" x2="0" y2="1" id="SvgjsLinearGradient1038"><stop stop-color="#869aff" offset="0"></stop><stop stop-color="#86aeff" offset="0.3333333333333333"></stop></linearGradient><linearGradient x1="0.1" y1="0" x2="0" y2="1" id="SvgjsLinearGradient1039"><stop stop-color="#c9d2ff" offset="0"></stop><stop stop-color="#c9dbff" offset="0.5"></stop></linearGradient><linearGradient x1="0.1" y1="0" x2="0" y2="1" id="SvgjsLinearGradient1040"><stop stop-color="#ffffff" offset="0"></stop><stop stop-color="#ffffff" offset="0.6666666666666666"></stop></linearGradient><linearGradient x1="0.1" y1="0" x2="0" y2="1" id="SvgjsLinearGradient1041"><stop stop-color="#ffffff" offset="0"></stop><stop stop-color="#ffffff" offset="0.8333333333333334"></stop></linearGradient></defs></svg>