<svg xmlns="http://www.w3.org/2000/svg" version="1.1" xmlns:xlink="http://www.w3.org/1999/xlink" xmlns:svgjs="http://svgjs.dev/svgjs" viewBox="0 0 1920 1080"><rect width="1920" height="1080" fill="#e4dffb"></rect><g transform="matrix(0.8131727983645296,0.8131727983645295,-0.8131727983645295,0.8131727983645296,612.3915681040592,-653.3137910070741)"><path d="M0,-1080C-10.836179091850402,-1012.5455831887107,-63.67656250396319,-840.3385080258136,-65.01707455110241,-675.2734991322637C-66.35758659824162,-510.2084902387139,-14.405039406494705,-251.81082004870908,-8.043072282835325,-89.60994663870093C-1.681105159175945,72.59092677130721,-27.462369744724125,164.6294478032124,-26.845271809146126,297.93174132778506C-26.228173873568128,431.2340348523577,-5.197955022087425,558.6493936136916,-4.340484669367342,710.203814508735C-3.483014316647259,861.7582354037785,-13.287579145361471,1043.4412292387353,-21.70044969282563,1207.2582666980459C-30.113320240289788,1371.0753041573564,-58.43444956962322,1534.3157503809389,-54.81770795415228,1693.106039264598C-51.20096633868135,1851.896328148257,-9.13628465902538,2082.184339877433,0,2160L 1920 2160 L 1920 -1080 Z" fill="url(&quot;#SvgjsLinearGradient1291&quot;)"></path><path d="M480,-1080C489.69073791039585,-935.9088069436268,531.4792173755155,-487.10803069882286,538.144427462375,-215.45284166176071C544.8096375492345,56.20234737530143,532.5098402777393,298.8195391007538,519.9912605211567,549.931134222373C507.4726807645742,801.0427293439922,469.69815900973936,1022.8719181050169,463.0329489228799,1291.2167290679547C456.3677388360204,1559.5615400308925,477.1721581538133,2015.2027881779925,480,2160L 1920 2160 L 1920 -1080 Z" fill="url(&quot;#SvgjsLinearGradient1292&quot;)"></path><path d="M960,-1080C957.144374954435,-1015.2337644291039,950.1011773274256,-819.4126968662586,942.8662497266098,-691.4025865746235C935.631322125794,-563.3924762829884,926.014763827239,-439.2062700650996,916.5904343951053,-311.9393382501891C907.1661049629715,-184.67240643527862,886.5799661821,-72.20061500570858,886.3202731338076,72.19900431483941C886.0605800855153,216.5986236353874,909.1782324383536,408.8546527902938,915.0322761053511,554.4583776730988C920.8863197723487,700.0621025559037,924.9567587125011,818.9973784992986,921.444535135793,945.8213536116692C917.9323115590848,1072.6453287240397,879.5911515966031,1169.7296627734959,893.958934645102,1315.402228347322C908.3267176936008,1461.0747939211483,996.6443892009695,1679.0904517791796,1007.6512334267859,1819.8567470546259C1018.6580776526023,1960.6230423300722,967.9418722377976,2103.3094578424375,960,2160L 1920 2160 L 1920 -1080 Z" fill="url(&quot;#SvgjsLinearGradient1293&quot;)"></path><path d="M1440,-1080C1445.0455776793976,-1005.3448342963189,1479.467414495703,-789.4250736051498,1470.2734660763863,-632.0690057779136C1461.0795176570696,-474.71293795067743,1389.6052210864261,-302.28954667843266,1384.8363094841002,-135.86359303658284C1380.0673978817742,30.562360605266946,1432.1831550236266,207.2448317992208,1441.6599964624309,366.4867160731851C1451.1368379012351,525.7286003471494,1451.2915400116417,674.6279591596074,1441.6973581169261,819.5877126072029C1432.1031762222105,964.5474660547984,1372.4353407546196,1088.15789883933,1384.0949050941374,1236.245236758758C1395.7544694336552,1384.332574678186,1502.3372283363892,1554.152612916897,1511.6547441540329,1708.1117401237707C1520.9722599716765,1862.0708673306444,1451.9424573590054,2084.6852900206286,1440,2160L 1920 2160 L 1920 -1080 Z" fill="url(&quot;#SvgjsLinearGradient1294&quot;)"></path></g><defs><linearGradient x1="0.1" y1="0" x2="0" y2="1" id="SvgjsLinearGradient1291"><stop stop-color="#e4dffb" offset="0"></stop><stop stop-color="#dfdffb" offset="0"></stop></linearGradient><linearGradient x1="0.1" y1="0" x2="0" y2="1" id="SvgjsLinearGradient1292"><stop stop-color="#eeebfd" offset="0"></stop><stop stop-color="#ebebfd" offset="0.25"></stop></linearGradient><linearGradient x1="0.1" y1="0" x2="0" y2="1" id="SvgjsLinearGradient1293"><stop stop-color="#f8f7fe" offset="0"></stop><stop stop-color="#f7f7fe" offset="0.5"></stop></linearGradient><linearGradient x1="0.1" y1="0" x2="0" y2="1" id="SvgjsLinearGradient1294"><stop stop-color="#ffffff" offset="0"></stop><stop stop-color="#ffffff" offset="0.75"></stop></linearGradient></defs></svg>