<svg xmlns="http://www.w3.org/2000/svg" version="1.1" xmlns:xlink="http://www.w3.org/1999/xlink" xmlns:svgjs="http://svgjs.dev/svgjs" viewBox="0 0 1920 1080"><rect width="1920" height="1080" fill="#6696ff"></rect><g transform="matrix(0.8131727983645296,0.8131727983645295,-0.8131727983645295,0.8131727983645296,611.4717528729723,-649.3102587650164)"><path d="M0,-1080C3.492668828957479,-1008.8403785407453,7.483562694166096,-818.4492015117672,20.956012973744876,-653.0422712444716C34.428463253323656,-487.63534097717604,77.04445215651955,-253.2410775591342,80.83470167747268,-87.55841839622636C84.6249511984258,78.12424076668148,59.71110852548627,199.23966447883384,43.697510099463614,341.0536837329754C27.683911673440964,482.86770298711696,-8.476081489432286,618.5110171247306,-15.246888878663228,763.325697128623C-22.01769626789417,908.1403771325154,13.012541413728842,1051.2215349470725,3.0726657640779678,1209.9417637563295C-6.8672098855729065,1368.6619925655864,-74.37403181588881,1557.3040306102193,-74.88614277656848,1715.6470699841645C-75.39825373724814,1873.9901093581097,-12.481023796094746,2085.941178330694,0,2160L 1920 2160 L 1920 -1080 Z" fill="url(&quot;#SvgjsLinearGradient1198&quot;)"></path><path d="M192,-1080C191.25331963076806,-972.0447203714028,194.53861769861493,-641.3632880242342,187.5199177846083,-432.2683222284168C180.5012178706017,-223.1733564325994,151.05645544779145,-27.757511906628878,149.88780051596032,174.56979477490455C148.7191455841292,376.897101456438,162.3574602107961,566.7906657974652,180.5079881936215,781.6955178607839C198.65851617644688,996.6003699241026,256.87563311184965,1234.2814934649473,258.7909684129127,1463.9989071548166C260.7063037139758,1693.716320844686,203.13182806881878,2043.999817859136,192,2160L 1920 2160 L 1920 -1080 Z" fill="url(&quot;#SvgjsLinearGradient1199&quot;)"></path><path d="M384,-1080C393.6932937339366,-993.9572096337195,438.5682234822146,-752.9864220673182,442.1597624036197,-563.7432578023166C445.7513013250248,-374.500093537315,429.0183515025281,-121.92189998668323,405.54923352843065,55.45898559000963C382.0801155543332,232.8398711667025,297.40873944270805,333.72822149216285,301.3450545590349,500.5420556578404C305.28136967536176,667.355889823518,405.51545542573376,871.4902304293324,429.1671242263919,1056.3419905840751C452.81879302705,1241.193750738818,450.78292140071557,1425.7096150169757,443.2550673629836,1609.6526165862965C435.7272133252516,1793.5956181556173,393.8758445604973,2068.275436097716,384,2160L 1920 2160 L 1920 -1080 Z" fill="url(&quot;#SvgjsLinearGradient1200&quot;)"></path><path d="M576,-1080C576.1232742871981,-993.0397202482936,572.8850779062111,-724.5841352516526,576.7396457231888,-558.2383214897617C580.5942135401665,-391.8925077278708,607.8432893522125,-256.1609051364052,599.1274069018659,-81.92511742865462C590.4115244515193,92.31067027909596,540.8841114367812,288.4969692463303,524.4443510211092,487.1764047567417C508.00459060543733,685.8558402671531,488.26380618662,929.2037991461184,500.4888444078344,1110.151495633814C512.7138826290487,1291.0991921215095,585.2093877497012,1397.8878329552174,597.7945803483955,1572.862583682915C610.3797729470897,1747.8373344106128,579.6324300580659,2062.1437639471524,576,2160L 1920 2160 L 1920 -1080 Z" fill="url(&quot;#SvgjsLinearGradient1201&quot;)"></path><path d="M768,-1080C763.0603570290327,-991.0837134483345,740.6315990490352,-707.9046758535208,738.3621421741964,-546.5022806900068C736.0926852993575,-385.09988552649287,739.1327321476813,-252.99365958999383,754.3832587509667,-111.5856290189162C769.633785354252,29.822401552161438,821.264432991935,140.90107176548537,829.865301793909,301.94590273645895C838.466170595883,462.9907337074325,821.8003868279052,701.3643404426082,805.9884715628106,854.6833568069253C790.1765562977159,1008.0023731712424,742.0518387193364,1090.5185358024924,734.9938102033412,1221.8600009223615C727.9357816873461,1353.2014660422305,758.1392688340632,1486.3754810131998,763.6403004668396,1642.7321475261394C769.141332099616,1799.0888140390791,767.2733834111399,2073.7886912543568,768,2160L 1920 2160 L 1920 -1080 Z" fill="url(&quot;#SvgjsLinearGradient1202&quot;)"></path><path d="M960,-1080C968.0971277583019,-1010.39775366505,995.8277371585477,-804.6635008264258,1008.5827665498115,-662.3865219902998C1021.3377959410752,-520.1095431541738,1054.3524056988726,-349.5274704201758,1036.5301763475827,-226.33812698324405C1018.7079469962929,-103.14878354631232,913.516452973489,-36.99008492904744,901.6493904420723,76.74953863129069C889.7823279106557,190.48916219162882,969.8781650470536,318.52481689096965,965.3278011590829,456.09961437878474C960.7774372711123,593.6744118665998,872.0774490871465,749.0565561301626,874.3472071142485,902.1983235581811C876.6169651413504,1055.3400909861996,977.0055077103791,1225.9427980841135,978.9463493216942,1374.9502189468958C980.8871909330094,1523.957639809678,889.1499816690881,1665.4012185593576,885.9922567821391,1796.242848734875C882.83453189519,1927.0844789103924,947.6653761303565,2099.373808122479,960,2160L 1920 2160 L 1920 -1080 Z" fill="url(&quot;#SvgjsLinearGradient1203&quot;)"></path><path d="M1152,-1080C1161.8658094023244,-980.0615807482015,1207.3625496968687,-652.449083207728,1211.1948564139473,-480.3694844892095C1215.0271631310259,-308.28988577069106,1173.658246815534,-218.26072192849335,1174.9938403024719,-47.52240768888906C1176.3294337894097,123.21590655071525,1232.7247951223246,359.69874462417556,1219.208417335574,544.0604009484164C1205.6920395488235,728.4220572726572,1108.123759339112,879.8565875079825,1093.8955735819688,1058.647530256556C1079.6673878248257,1237.4384730051293,1124.1552317230435,1433.2473124826165,1133.8393027927152,1616.806057439857C1143.523373862387,1800.3648023970977,1148.9732171321193,2069.4676762399763,1152,2160L 1920 2160 L 1920 -1080 Z" fill="url(&quot;#SvgjsLinearGradient1204&quot;)"></path><path d="M1344,-1080C1339.1573653111523,-1007.254832832517,1324.004987945839,-793.4488789820854,1314.9441918669131,-643.5289969951015C1305.8833957879872,-493.60911500811756,1284.5349418774256,-303.460170902773,1289.6352235264449,-180.48070807809663C1294.7355051754641,-57.501245253420265,1348.8403888892637,-26.401809677449123,1345.5458817610286,94.34777995295667C1342.2513746327934,215.09736958336248,1256.2701925691058,416.12429290340634,1269.8681807570335,544.0168297043381C1283.4661689449613,671.9093665052699,1414.104656388106,733.2088313057587,1427.1338108885943,861.7030007585472C1440.1629653890827,990.1971702113357,1349.7114032251932,1163.6316804791843,1348.0431077599646,1314.981846421069C1346.374812294736,1466.3320123629535,1417.7978893905508,1628.9676374800324,1417.1240380972233,1769.8039964098543C1416.4501868038958,1910.6403553396763,1356.1873396828705,2094.9673327349756,1344,2160L 1920 2160 L 1920 -1080 Z" fill="url(&quot;#SvgjsLinearGradient1205&quot;)"></path><path d="M1536,-1080C1550.3284245861341,-977.1515915364214,1615.6419669605398,-681.1203317448828,1621.9705475168041,-462.909549218528C1628.2991280730685,-244.6987666921732,1581.0328037571364,23.00274262044232,1573.9714833375867,229.26469515812883C1566.910162918037,435.5266476958153,1600.2944679724046,548.9903231490824,1579.602624999506,774.6621660075912C1558.9107820266072,1000.3340088660999,1457.0875296667791,1352.4061133104467,1449.8204255001947,1583.2957523091816C1442.5533213336103,1814.1853913079165,1521.6367375833659,2063.882625384864,1536,2160L 1920 2160 L 1920 -1080 Z" fill="url(&quot;#SvgjsLinearGradient1206&quot;)"></path><path d="M1728,-1080C1742.0911224551362,-938.227918224382,1810.830586557478,-485.3660537399755,1812.5467347308168,-229.36750934629202C1814.2628829041555,26.631035047391435,1742.0452655876986,202.02717638255865,1738.296889040033,455.9912663621009C1734.5485124923673,709.9553563416431,1791.772623618161,1010.4155749246447,1790.0564754448224,1294.4170305309613C1788.3403272714836,1578.4184861372778,1738.3427459074703,2015.7361717551603,1728,2160L 1920 2160 L 1920 -1080 Z" fill="url(&quot;#SvgjsLinearGradient1207&quot;)"></path></g><defs><linearGradient x1="0.1" y1="0" x2="0" y2="1" id="SvgjsLinearGradient1198"><stop stop-color="#6696ff" offset="0"></stop><stop stop-color="#66afff" offset="0"></stop></linearGradient><linearGradient x1="0.1" y1="0" x2="0" y2="1" id="SvgjsLinearGradient1199"><stop stop-color="#7ba5ff" offset="0"></stop><stop stop-color="#7bbbff" offset="0.1"></stop></linearGradient><linearGradient x1="0.1" y1="0" x2="0" y2="1" id="SvgjsLinearGradient1200"><stop stop-color="#91b3ff" offset="0"></stop><stop stop-color="#91c5ff" offset="0.2"></stop></linearGradient><linearGradient x1="0.1" y1="0" x2="0" y2="1" id="SvgjsLinearGradient1201"><stop stop-color="#a6c2ff" offset="0"></stop><stop stop-color="#a6d1ff" offset="0.3"></stop></linearGradient><linearGradient x1="0.1" y1="0" x2="0" y2="1" id="SvgjsLinearGradient1202"><stop stop-color="#bcd1ff" offset="0"></stop><stop stop-color="#bcdcff" offset="0.4"></stop></linearGradient><linearGradient x1="0.1" y1="0" x2="0" y2="1" id="SvgjsLinearGradient1203"><stop stop-color="#d1e0ff" offset="0"></stop><stop stop-color="#d1e8ff" offset="0.5"></stop></linearGradient><linearGradient x1="0.1" y1="0" x2="0" y2="1" id="SvgjsLinearGradient1204"><stop stop-color="#e7eeff" offset="0"></stop><stop stop-color="#e7f2ff" offset="0.6"></stop></linearGradient><linearGradient x1="0.1" y1="0" x2="0" y2="1" id="SvgjsLinearGradient1205"><stop stop-color="#fcfdff" offset="0"></stop><stop stop-color="#fcfdff" offset="0.7"></stop></linearGradient><linearGradient x1="0.1" y1="0" x2="0" y2="1" id="SvgjsLinearGradient1206"><stop stop-color="#ffffff" offset="0"></stop><stop stop-color="#ffffff" offset="0.8"></stop></linearGradient><linearGradient x1="0.1" y1="0" x2="0" y2="1" id="SvgjsLinearGradient1207"><stop stop-color="#ffffff" offset="0"></stop><stop stop-color="#ffffff" offset="0.9"></stop></linearGradient></defs></svg>